<svg id="ab6845ad-8244-4cc5-81b2-cbd36820fcca" data-name="Layer 1" xmlns="http://www.w3.org/2000/svg" width="865.76" height="682.89" viewBox="0 0 865.76 682.89"><path d="M200.66,570s-126-129.21-74.47-325.19c0,0,27.58-173.11,193.1-102.06,0,0,103.15,37.62,182.31-5.57,0,0,185.67-108.2,236,35.84,0,0,52.15,149.72-29.41,266.76Z" fill="#f24d00"/><path d="M200.66,570s-126-129.21-74.47-325.19c0,0,27.58-173.11,193.1-102.06,0,0,103.15,37.62,182.31-5.57,0,0,185.67-108.2,236,35.84,0,0,52.15,149.72-29.41,266.76Z" fill="#fff" opacity="0.7"/><circle cx="650.67" cy="181.32" r="8.45" fill="#fff"/><path d="M649,205.63c-25.63,0-46.47-11.09-46.47-24.72s20.84-24.72,46.47-24.72,46.47,11.09,46.47,24.72S674.57,205.63,649,205.63Zm0-48.26c-25,0-45.28,10.56-45.28,23.54S624,204.44,649,204.44s45.28-10.56,45.28-23.53S673.92,157.37,649,157.37Z" fill="#143d34"/><path d="M649,227.38c-13.63,0-24.72-20.85-24.72-46.47s11.09-46.47,24.72-46.47,24.72,20.84,24.72,46.47S662.58,227.38,649,227.38Zm0-91.75c-13,0-23.53,20.31-23.53,45.28S636,226.19,649,226.19s23.53-20.31,23.53-45.28S661.93,135.63,649,135.63Z" fill="#143d34"/><path d="M629.2,215.21c-7.29,0-13-2.33-16.29-6.78-8.45-11.31,1.37-33,21.9-48.33,9.9-7.39,20.78-12.24,30.65-13.66s17.77.83,21.91,6.36,4.09,13.64-.12,22.82-11.89,18.12-21.79,25.51-20.78,12.24-30.64,13.66A39.85,39.85,0,0,1,629.2,215.21Zm41.88-68a39,39,0,0,0-5.45.41c-9.68,1.39-20.37,6.16-30.11,13.43-20,14.95-29.72,35.88-21.66,46.67,3.86,5.17,11.24,7.26,20.79,5.89s20.36-6.16,30.1-13.43S682.1,184,686.17,175.12s4.11-16.43.25-21.6C683.33,149.38,678,147.21,671.08,147.21Z" fill="#143d34"/><path d="M669,219c-11.19,0-25.8-7-38.2-19.41-8.73-8.73-15.09-18.81-17.91-28.37s-1.73-17.71,3.16-22.6,12.91-6,22.59-3.15,19.64,9.17,28.38,17.91h0c8.73,8.73,15.09,18.81,17.9,28.37s1.74,17.71-3.15,22.59C678.66,217.52,674.21,219,669,219Zm-40.16-73.89c-5,0-9.07,1.47-12,4.35-4.56,4.57-5.58,12.17-2.86,21.42s9,19.27,17.61,27.87C649.34,216.42,671.45,223,681,213.52c4.56-4.56,5.58-12.17,2.85-21.42s-9-19.27-17.61-27.86h0c-8.59-8.6-18.49-14.85-27.86-17.61A33.83,33.83,0,0,0,628.88,145.13Z" fill="#143d34"/><rect x="452.52" y="33.44" width="157.66" height="101.14" rx="12.92" fill="#e6e7e8"/><path d="M469.88,157.88V128.14h29.25S488.22,153.42,469.88,157.88Z" fill="#e6e7e8"/><rect x="479.3" y="54.76" width="102.63" height="10.41" fill="#fff"/><rect x="479.3" y="75.58" width="102.63" height="10.41" fill="#fff"/><rect x="480.04" y="99.38" width="102.63" height="10.41" fill="#fff"/><rect x="648.66" y="265.49" width="131.69" height="84.68" fill="#e6e7e8"/><circle cx="717.87" cy="320" r="12.21" fill="#f24d00"/><circle cx="739.25" cy="286.86" r="5.02" fill="#f24d00"/><circle cx="683.62" cy="320" r="8.04" fill="#f24d00"/><rect x="698.17" y="313.91" width="1.19" height="14.39" transform="translate(274.21 962.3) rotate(-81.17)" fill="#143d34"/><rect x="719.55" y="299.91" width="22.24" height="1.19" transform="translate(72.24 737.15) rotate(-55.91)" fill="#143d34"/><path d="M141.56,370.57a.44.44,0,0,1-.09-.88l25.15-5.46a.45.45,0,1,1,.19.87l-25.15,5.46Z" fill="#143d34"/><path d="M136.7,381.55a.45.45,0,0,1-.43-.35.43.43,0,0,1,.33-.53l38.72-8.84a.44.44,0,0,1,.53.34.43.43,0,0,1-.33.53l-38.72,8.84Z" fill="#e6e7e8"/><path d="M138.67,392.16a.45.45,0,0,1-.09-.88l39.29-8.75a.45.45,0,0,1,.53.34.45.45,0,0,1-.34.53l-39.29,8.75Z" fill="#143d34"/><path d="M146.65,422.12a.45.45,0,0,1-.44-.36.44.44,0,0,1,.36-.52l38.9-7.4a.45.45,0,0,1,.52.36.46.46,0,0,1-.36.52l-38.9,7.39Z" fill="#143d34"/><path d="M156.06,432a.44.44,0,0,1-.43-.34.45.45,0,0,1,.33-.54l25-5.87a.46.46,0,0,1,.54.34.44.44,0,0,1-.33.53L156.16,432Z" fill="#e6e7e8"/><path d="M151.32,444.09a.44.44,0,0,1-.44-.35.45.45,0,0,1,.35-.53L190.32,435a.46.46,0,0,1,.53.35.45.45,0,0,1-.35.53l-39.09,8.17Z" fill="#143d34"/><path d="M158.32,471a.44.44,0,0,1-.09-.88l36.93-7.73a.44.44,0,0,1,.52.34.43.43,0,0,1-.34.53L158.41,471Z" fill="#143d34"/><path d="M163.21,481.58a.44.44,0,0,1-.43-.33.46.46,0,0,1,.32-.55L193.66,473a.44.44,0,1,1,.22.86l-30.56,7.72Z" fill="#e6e7e8"/><path d="M166.1,489.52a.44.44,0,0,1-.43-.34.45.45,0,0,1,.33-.54l29-6.91a.44.44,0,0,1,.54.33.45.45,0,0,1-.33.54l-29,6.91Z" fill="#e6e7e8"/><path d="M591.12,552.32l43.27,60.4V570.65a7.2,7.2,0,0,1-3.9-.53S597.21,552.06,591.12,552.32Z" fill="#143d34"/><path d="M490.85,377.87s-5.58-58.66,23.46-69.05l65.48,7.69s11.83,6.09,16.05,13.94c0,0,23.57,10.37,32,21.32,0,0,14,23.3,18.25,41.82,0,0,6.46,37.05,0,73.54l-4.42,63.42s1.8,29.53-5.23,38.69a4.62,4.62,0,0,1-5.94.88c-8.13-4.4-30.54-16.22-39.37-17.8,0,0-10.91-3.89-38.51-50.15L504.8,414.69Z" fill="#f24d00"/><path d="M507.91,355.2s-.46,51.75-1.4,62.62l7.56,13.82Z" opacity="0.2"/><path d="M645.19,390.11s70.75,8.74,63,49.63c0,0-1.26,23.55-23,77.2,0,0-37.91,86.57-34.5,115.8l-12-17.93,1.65-6.63a41.13,41.13,0,0,0-.39-11s-1.81-4.28,4.8-26.51l29-82.25s23.6-62.54-25.19-70.34C648.58,418.06,647.43,397,645.19,390.11Z" fill="#a7a9ac"/><path d="M648.58,418.06s33.38,1.48,30.85,41.48c0,0,.49,11.41-7.34,33.62l-27.32,77.49s-5.36,18.07-4.8,26.51a35.12,35.12,0,0,1-1.26,17.65l-4.32-6.47V570.65s6.19-1.84,7.2-27.67l.07-12.43,1.06-15.17,3.36-48.25S649.08,431.34,648.58,418.06Z" fill="#bcbec0"/><path d="M195.33,647.51l18.8-273.23a1.66,1.66,0,0,1,1.7-1.55L480,378.68a1.65,1.65,0,0,1,1.34.74L660.14,646.87a1.65,1.65,0,0,1-1.38,2.58c-39-.13-431.16-1.4-461.71-.17A1.65,1.65,0,0,1,195.33,647.51Z" fill="#d1d3d4"/><path d="M466.31,383.41c.39-1.28,1.56-2.45,4.67-2,0,0,13.95-.32,16.91-1.95,0,0,5.64-4.66,8.55,1,0,0,7,8.56,9.14,23.72,0,0,4.28,16.33-6.61,9.53,0,0-4.08,7.38-16.33,5.44,0,0-4.33-.26-5.55-3.16a3.81,3.81,0,0,1,.09-3c1.27-2.88,4.65-13.76-9.7-25.9A3.53,3.53,0,0,1,466.31,383.41Z" fill="#f24d00"/><path d="M466.31,383.41c.39-1.28,1.56-2.45,4.67-2,0,0,13.95-.32,16.91-1.95,0,0,5.64-4.66,8.55,1,0,0,7,8.56,9.14,23.72,0,0,4.28,16.33-6.61,9.53,0,0-4.08,7.38-16.33,5.44,0,0-4.33-.26-5.55-3.16a3.81,3.81,0,0,1,.09-3c1.27-2.88,4.65-13.76-9.7-25.9A3.53,3.53,0,0,1,466.31,383.41Z" fill="#fff" opacity="0.2"/><path d="M471,381.45l7.83,9.65a20.72,20.72,0,0,1,3.94,7.59,23.51,23.51,0,0,1-2.94,19.78s-2-.2-2.75-3a4.08,4.08,0,0,1,.24-2.71c1-2.38,2.93-9-2.7-17.91,0,0-3.81-5.26-7.12-7.78,0,0-2.8-2.58-.62-4.68C466.86,382.39,467.9,381.56,471,381.45Z" fill="#fff" opacity="0.2"/><path d="M481.39,380.82s8.06,8,9.71,13.75c0,0,4.69-6-2-15.87,0,0-1.48,1.7-8.19,2.17" fill="#fff" opacity="0.2"/><path d="M493.92,393.42s4.31,15.57-2.71,25.51a12.85,12.85,0,0,0,7.76-5.21S501.5,400.41,493.92,393.42Z" fill="#fff" opacity="0.2"/><path d="M466.18,385.07l-39.33,7.46s-4.47,2.52-11.28-1.95l-9.52-5.51s-3.11-3-12.05-.9L384.55,386a6.33,6.33,0,0,0-4.82,4.16c-2.23,6.51-6.37,19.81-2.84,19.51,0,0,1.55.59,3.69-1.55,0,0-.58,4.66,1.36,6.41l6.07,6.25a1.68,1.68,0,0,0,2.57-.16c.46-.69.74-1.88.41-4a.16.16,0,0,1,.28-.14l3.72,4.16a1.62,1.62,0,0,0,1.81.42c1-.42,2-1.68.31-5.4,0,0,3.88,4.06,6.61,2.81,0,0,1.75-.28-.78-4,0,0,10,4.67,17.91-1.55,0,0,.56-1.56,7.55-.59l48.21,1.95s7.59-14-9.13-27.23A1.8,1.8,0,0,1,466.18,385.07Z" fill="#f9b499"/><path d="M425.56,412.07s.54-4.06,18.72-2.52a26.17,26.17,0,0,0,3.07.09l17.26-.44s8.76,1.21,6.86-9.08a19.14,19.14,0,0,0-1.66-4.88c-1.49-3.06-4.48-9-5.47-9.82l1.84-.35s-.1.84,1.3,2c0,0,15.89,11.52,9.13,27.23Z" fill="#f7a48b"/><path d="M380.58,408.08a10.83,10.83,0,0,0,1.27-2.24c.35-.78.66-1.58.93-2.39s.53-1.63.76-2.45.42-1.66.63-2.5v.14a3,3,0,0,1,.34-1.56,4.22,4.22,0,0,1,.92-1.2,5.33,5.33,0,0,1,1.21-.81,7.21,7.21,0,0,1,1.34-.5,13.91,13.91,0,0,0-1.17.77,7.16,7.16,0,0,0-1,.93,4.18,4.18,0,0,0-.66,1.1,2.77,2.77,0,0,0-.19,1.16v.14c-.16.86-.36,1.72-.58,2.57a24.64,24.64,0,0,1-.87,2.5,14.16,14.16,0,0,1-1.22,2.35A7.54,7.54,0,0,1,380.58,408.08Z" fill="#f7a48b"/><path d="M400.71,387.43c-1.3,1.13-2.56,2.3-3.75,3.54a39.59,39.59,0,0,0-3.35,3.86,15.91,15.91,0,0,0-2.42,4.39,5.18,5.18,0,0,0-.24,2.36,3.67,3.67,0,0,0,1.07,2l0,0a1.67,1.67,0,0,0,.84.25,2.21,2.21,0,0,0,1-.22,5.4,5.4,0,0,0,1.7-1.31,12.35,12.35,0,0,0,1.35-1.85c.42-.64.77-1.34,1.13-2l.36-.69.37.68a14.22,14.22,0,0,0,2.36,3.13,11.14,11.14,0,0,0,3.21,2.27,9.73,9.73,0,0,0,3.83.94,11.16,11.16,0,0,0,2-.08c.67-.08,1.32-.27,2-.39-.65.18-1.29.44-2,.56a10.62,10.62,0,0,1-2,.23,11,11,0,0,1-2.06-.14,10.58,10.58,0,0,1-2-.62,11.8,11.8,0,0,1-3.49-2.25,13.59,13.59,0,0,1-2.59-3.28h.73a24,24,0,0,1-1.14,2.12,13,13,0,0,1-1.41,2,5.94,5.94,0,0,1-2,1.56,2.68,2.68,0,0,1-2.72-.2h0a4.52,4.52,0,0,1-1.27-2.5,6,6,0,0,1,.3-2.73,14.47,14.47,0,0,1,2.67-4.54,34.51,34.51,0,0,1,3.59-3.76A44.61,44.61,0,0,1,400.71,387.43Z" fill="#f7a48b"/><path d="M390.49,401.32c-.19,1.35-.44,2.68-.74,4s-.67,2.66-1,3.89a3.71,3.71,0,0,0,.1,1.78,13.28,13.28,0,0,0,.79,1.77c.59,1.22,1.12,2.46,1.6,3.73q-1.18-1.65-2.22-3.39a10.4,10.4,0,0,1-1-1.85,4.59,4.59,0,0,1-.17-2.21c.36-1.38.75-2.61,1.18-3.91S390,402.57,390.49,401.32Z" fill="#f7a48b"/><path d="M397.11,415.66a5.82,5.82,0,0,1-2.64-4.51,6.86,6.86,0,0,1,.36-2.67,8.36,8.36,0,0,1,.54-1.22,10.44,10.44,0,0,1,.76-1.08c-.1.43-.24.84-.35,1.25s-.21.81-.26,1.22a9.51,9.51,0,0,0-.14,2.43,8.07,8.07,0,0,0,.53,2.36A9.81,9.81,0,0,0,397.11,415.66Z" fill="#f7a48b"/><line x1="468.49" y1="498.85" x2="468.46" y2="498.85" fill="none" stroke="#ed1c24" stroke-miterlimit="10"/><path d="M586.38,453.31S595,459.85,602,473.47c0,0,5.77-2.62-6-20.16,0,0,4.45-3.93,5.5-7.34,0,0,6,5.77,7.86,12,0,0,1.57-9.69-7.34-14.4a134.87,134.87,0,0,0,4.19-20.17s6.06-38,16.24-50.55c0,0-16,8.65-24.36,43.74a149.85,149.85,0,0,0-2.61,21.22S594.84,452.78,586.38,453.31Z" opacity="0.2"/><path d="M598.35,502.65a32.65,32.65,0,0,1-29.79,7.9l-.58-.15s-8-.84-5.2-7.75c0,0,11.21-7.94-14.06-34.67,0,0-8.48-6.16-3.28-8.44a3.66,3.66,0,0,1,.53-.21s.79-1.31,15.2-1.31c0,0,10-.17,14.67-2.84,0,0,6.41-5.73,10.54-1.88,0,0,17.55,17.81,18,36.67C604.41,490,607,511.39,598.35,502.65Z" fill="#f24d00"/><path d="M598.35,502.65a32.65,32.65,0,0,1-29.79,7.9l-.58-.15s-8-.84-5.2-7.75c0,0,11.21-7.94-14.06-34.67,0,0-8.48-6.16-3.28-8.44a3.66,3.66,0,0,1,.53-.21s.79-1.31,15.2-1.31c0,0,10-.17,14.67-2.84,0,0,6.41-5.73,10.54-1.88,0,0,17.55,17.81,18,36.67C604.41,490,607,511.39,598.35,502.65Z" fill="#fff" opacity="0.2"/><path d="M568.56,510.55l-.58-.15s-8-.84-5.2-7.75c0,0,11.21-7.94-14.06-34.67,0,0-8.48-6.16-3.28-8.44C554.1,465.74,573.72,483.13,568.56,510.55Z" fill="#fff" opacity="0.3"/><path d="M553.82,458.17s18.61,18.45,23.32,30.23c0,0,3.47-11.79-13.33-30.51Z" fill="#fff" opacity="0.2"/><path d="M575.84,455.18s6.28,10.44,6.28,15.15c0,0,2.81-6.22-1.61-17.91A26.12,26.12,0,0,0,575.84,455.18Z" fill="#fff" opacity="0.2"/><path d="M585.77,510s16-10.73,6.86-31.61c0,0,6.09,4.45,5.72,24.28A29.36,29.36,0,0,1,585.77,510Z" fill="#fff" opacity="0.2"/><polygon points="372.35 457.89 468.46 488.4 390.49 552.83 235.77 496.75 250.79 488.04 372.35 457.89" fill="#f24d00"/><polygon points="372.35 457.89 468.46 488.4 390.49 552.83 235.77 496.75 250.79 488.04 372.35 457.89" opacity="0.1"/><polygon points="235.77 496.75 238.81 514.86 389.77 571.82 474.06 496.75 468.46 488.4 390.49 552.83 235.77 496.75" fill="#f24d00"/><polygon points="192.1 355.2 200.5 349.63 362.76 387.43 389.77 542.99 384.28 547.49 354.55 396.18 192.1 355.2" fill="#f24d00"/><polygon points="192.1 355.2 200.5 349.63 362.76 387.43 389.77 542.99 384.28 547.49 354.55 396.18 192.1 355.2" opacity="0.2"/><polygon points="389.77 542.99 425.49 508.19 381.62 496.01 389.77 542.99" opacity="0.1"/><polygon points="379.88 486.03 391.27 490.38 405.28 477.39 376.23 464.97 379.88 486.03" opacity="0.1"/><path d="M388.25,592l-60,32.71h-6l4.8-7.64,57.21-32.18a3.44,3.44,0,0,1,4.67,1.28l.63,1.1a3.49,3.49,0,0,1,.19.39A3.44,3.44,0,0,1,388.25,592Z" fill="#bcbec0"/><path d="M388.25,592l-60,32.71h-6l67.5-37A3.44,3.44,0,0,1,388.25,592Z" opacity="0.1"/><path d="M398.17,607l-36.12,26.34h-3.61l2.89-6.15,34.45-25.92c1-.74,2.24-.28,2.81,1l.38.89c0,.11.08.21.12.32A3.27,3.27,0,0,1,398.17,607Z" fill="#bcbec0"/><path d="M398.17,607l-36.12,26.34h-3.61l40.65-29.83A3.27,3.27,0,0,1,398.17,607Z" opacity="0.1"/><path d="M484.73,524.9s33.54-13.38,44.18-14.35c0,0,36.35,62.18,41.79,76.37,0,0-3.55,6-28.31,16.32l-57.66-74Z" fill="#f24d00"/><polygon points="484.73 526.63 484.73 524.9 495.73 520.68 530.29 527.78 540.38 559.51 550.88 562.91 542.81 580.57 549.17 600.28 542.39 603.24 484.73 529.19 484.73 526.63" opacity="0.1"/><path d="M541.09,311.27s2.59,14.51,1.56,19.18l-2.86,68.17,9.08-38.36s1.75-11,12.9-19c.34-.24.68-.47,1-.69,3.39-2.18,24.1-16.08,12.89-24l-8.61-31.29Z" fill="#f9b499"/><path d="M541.09,311.27s2.72,13.48,1.56,19.18c0,0,26.26-11.37,27.42-34.39l-3-10.84Z" fill="#f7a48b"/><ellipse cx="533.54" cy="265.89" rx="36.28" ry="50.62" fill="#f9b499"/><path d="M578.22,273.88l-11.71-1.4L562,272c-2.38-2.25,0-6.06,0-6.06a7.13,7.13,0,0,0,0-7,40.55,40.55,0,0,0-5.44-13.48c-8.55-.25-8-3.25-8-3.25-1.81-4.54-18.39,3-18.39,3C507.65,255,495.47,247,495.47,247c-4.72-2.23-4.21-5.45-2.55-8.09a19.75,19.75,0,0,1,4.34-4.61c-2.36-2.86,0-8,0-8,2-5.7,9.88-4.14,9.88-4.14,3.62-11.15,11.4-9.59,11.4-9.59,6.48-5.19,22.29-8.3,22.29-8.3,24.74-2.85,36.9,14.68,41.62,24.21a33.89,33.89,0,0,1,3.24,11.19C588.26,262.49,578.22,273.88,578.22,273.88Z" fill="#143d34"/><path d="M569.71,262s-3,1.36-1.48,4.09l-1.72,6.4L562,272c-2.38-2.25,0-6.06,0-6.06a7.13,7.13,0,0,0,0-7,40.55,40.55,0,0,0-5.44-13.48c-8.55-.25-8-3.25-8-3.25-1.81-4.54-18.39,3-18.39,3C507.65,255,495.47,247,495.47,247c-4.72-2.23-4.21-5.45-2.55-8.09.12.37,3.44,10.54,23.55,3.16,0,0,29-17.37,41.21-8.3,0,0,2.34,2.08,2.07,7.26,0,0-1.66,4.37,3.37,7C563.12,248,574.74,253.14,569.71,262Z" opacity="0.2"/><ellipse cx="569.82" cy="277.15" rx="8.78" ry="11.27" fill="#f9b499"/><path d="M542.56,320.81l-16.69,12.84-6.82,34.49,14.49-13.84,7.55,15.85,1.56-39.7A31.22,31.22,0,0,0,542.56,320.81Z" fill="#f24d00"/><path d="M542.56,320.81l-16.69,12.84-6.82,34.49,14.49-13.84,7.55,15.85,1.56-39.7A31.22,31.22,0,0,0,542.56,320.81Z" fill="#fff" opacity="0.2"/><path d="M552.61,351.05s13.81-1.49,23.48,11.72l10.29,14-5.07-50.84s2-10.62-6.68-13.26l1.06,3.86s7.77,4.33-.06,13.09c0,0-3.85,5.12-12.83,10.93A29.21,29.21,0,0,0,552.61,351.05Z" fill="#f24d00"/><path d="M552.61,351.05s13.81-1.49,23.48,11.72l10.29,14-5.07-50.84s2-10.62-6.68-13.26l1.06,3.86s7.77,4.33-.06,13.09c0,0-3.85,5.12-12.83,10.93A29.21,29.21,0,0,0,552.61,351.05Z" fill="#fff" opacity="0.2"/><path d="M406.18,465S391.46,475.52,396,477.66a4.15,4.15,0,0,0,4.66,0S400.77,473.07,406.18,465Z" fill="#f7a48b"/><path d="M562.78,502.65l-92.95-3.77c-.45,0-.9,0-1.34,0A36.21,36.21,0,0,1,455.14,496a26.21,26.21,0,0,1-15.21-17.73l-5.52,5c-3.66,4.38-6.68,4.25-8.05,3.85a3,3,0,0,1-.8-.34c-4.84-2.15,1.89-11.17,2.52-12l-6,6.23c-6.28,6.27-8.8,4-8.8,4-4.93-1.85.22-10.42,2.25-13.48l-3.46,4.94c-6.74,9.3-9.34,6-9.34,6-6.31-2.17,2.08-15.79,6-21.55a7,7,0,0,1,4.78-3l18.28-2.73a7.35,7.35,0,0,1,4.47.76l28.77,15a11.44,11.44,0,0,0,5.91,1.28L548.72,468C573.59,493.6,562.78,502.65,562.78,502.65Z" fill="#f9b499"/><path d="M402.75,482.55,416.57,465l11.81-2.76-8.8,5.28-3.26,3-5.58,7.8S405.77,484.9,402.75,482.55Z" fill="#f7a48b"/><path d="M416.77,485,430.67,468a.06.06,0,0,1,.1.07l-2.64,6.65S419.83,483.93,416.77,485Z" fill="#f7a48b"/><path d="M455.14,496a26.21,26.21,0,0,1-15.21-17.73l-5.52,5c-3.66,4.38-6.68,4.25-8.05,3.85h0s11.53-18.9,17.8-9.28Z" fill="#f7a48b"/><path d="M562.78,502.65c9.48-12.47-14.06-34.67-14.06-34.67l6.18,15.07C559,496,543,495.88,543,495.88L503.84,493c-24.25-1.28-34,5.84-34,5.84Z" fill="#f7a48b"/><polygon points="192.1 355.2 233.49 492.75 384.28 547.49 354.55 396.18 192.1 355.2" fill="#f24d00"/><polygon points="329.51 493.36 327.06 500.04 350.87 506.49 362 463.32 358.44 451.35 354.92 453.3 329.51 493.36" opacity="0.2"/><polygon points="245.65 379.87 249.33 378.27 261.16 416.48 238.83 424.27 230.57 387.43 245.65 379.87" opacity="0.2"/><polygon points="223.87 384.97 245.09 378.27 256.7 411.32 231.91 421.26 223.87 384.97" fill="#143d34"/><path d="M231.46,396.63a.48.48,0,0,1-.42-.28.46.46,0,0,1,.25-.59L246,389.69a.45.45,0,1,1,.35.83l-14.74,6.07A.39.39,0,0,1,231.46,396.63Z" fill="#fff"/><path d="M235.77,400.22a.46.46,0,0,1-.43-.31.45.45,0,0,1,.28-.57l10.44-3.59a.44.44,0,0,1,.57.28.45.45,0,0,1-.28.57l-10.43,3.59Z" fill="#fff"/><polygon points="328.62 451.35 332.4 462.2 319.49 493.58 350.87 501.37 358.44 463.76 354.92 448.56 328.62 451.35" fill="#143d34"/><circle cx="340.72" cy="455.28" r="1.75" fill="#fff"/><path d="M443.38,588.86l-.94,3.52,61,15.93s16.38-38.71,17.17-47.74l-1.56-7.74s-9.71,40.58-19.24,51.72Z" opacity="0.1"/><path d="M436.58,587l-15.09,21.34s63,28.93,81.33,33.91l40-77.39-23-9.1Z" fill="#143d34"/><polygon points="519.81 540.29 528.39 539.09 543.67 609.1 521.87 609.96 514.15 542.99 519.81 540.29" fill="#e6e7e8"/><polygon points="526.29 596.81 527.56 605.53 538.66 586.14 536.62 576.8 526.29 596.81" opacity="0.1"/><polygon points="519.81 555.73 519.05 552.83 520.61 548.43 531.82 554.81 533.18 561.02 519.81 555.73" opacity="0.1"/><path d="M443.38,588.86s-6.89,24.54-4.35,29.59l91.26,6.24s-8.69-62.25-11.24-71.86c0,0-9.15,39.26-19.24,51.72Z" fill="#f24d00"/><path d="M432.13,585.73l67.68,18.82s5.56-5,13.9-32.73L524,535.12l-54.2-11.71s-15.83,17.13-23.64,35c-.33.76-.67,1.5-1.05,2.23Z" fill="#fff"/><path d="M85.41,95.45V320a9,9,0,0,0,9,9H416.66a9,9,0,0,0,9-9V95.45a9,9,0,0,0-9-9H94.4A9,9,0,0,0,85.41,95.45Z" fill="#e6e7e8"/><path d="M276,86.46H251.05s1.88,6.71,4.48,9.2c0,0-6.59,10.65,8,14.94v17l-2.16,3.87-4.29-1.93-6,7.82v2.19S219.49,149.68,215.41,160c0,0-12.49,20.89-7.52,68.24,0,0,2,36.24,18.41,39.75,0,0,.58,13.16,4.38,15.49l-7,15.64h24.39l17.41-9.28,31-173.34-4.82-30Z" opacity="0.2"/><path d="M85.41,299.11V320a9,9,0,0,0,9,9H416.66a9,9,0,0,0,9-9V299.11Z" fill="#f24d00"/><rect x="102.51" y="311.39" width="311.3" height="2.66" transform="translate(516.32 625.44) rotate(-180)" fill="#fff"/><rect x="351.11" y="303.93" width="4.82" height="18.85" transform="translate(707.05 626.72) rotate(-180)" fill="#143d34"/><path d="M249.69,264.18s-.3,15.2,4.38,16.37h83s4.09,1.46,3.79-9.07l.59-20.74,9.64-7.9s9.82,9.81,27.43,1.38a44.26,44.26,0,0,0,14.34-11.14c8.79-10.2,27.2-34.39,29-60.1h0c-.45-.16-13.9-5.35-20-13.9a1.33,1.33,0,0,0-2.17,0L370.7,197.82s-2.92-20.2-9.63-35.95c-3.68-8.65-8.51-16-14.63-17.83l-26.18-9s1.12,2.28-.49,6.23l-6.37,10.09-9.31-9.44L293,153.11l-18.84-17.78s-32.38,13.1-35.89,24.21c0,0-6.42,11.1-7.59,49.69C230.69,209.23,229.81,260.67,249.69,264.18Z" fill="#f24d00"/><path d="M361.07,161.87c3.38,16.63,4.2,49,4.34,56a4.59,4.59,0,0,0,1.07,2.93c1.32,1.53,2.32.77,2.93-.14a4.61,4.61,0,0,0,.72-2.45,39.05,39.05,0,0,1,1.79-9.71,21.53,21.53,0,0,1,3.3-6.45l14.19-19.09c8.47-12.28,16.65-9.94,16.65-9.94,14,3.78,15.79,0,15.79,0h0c-.45-.16-13.9-5.35-20-13.9a1.33,1.33,0,0,0-2.17,0L370.7,197.82S367.78,177.62,361.07,161.87Z" opacity="0.2"/><path d="M378.54,244.22s-19.83-3.71-26.55-11.31l-.88,9.93S362.13,252.61,378.54,244.22Z" opacity="0.2"/><path d="M308.73,249.86s-6.2.29-11.28-22.22A24.88,24.88,0,0,1,282.72,230c-2.05-.29-8.55-5.55-8.55-5.55s13.4-62-21.76-78.19l-8.33,5.89-3.69,3.71s23.33,9.54,21.28,32.34l-.59,23.68s-11.69,7.31-12,11.69c0,0-.58,6.72,9.65,4.09,0,0-8.47,6.54-3.22,12.62,0,0,6.43-12.32,14.62-7.35l7.3,3.5s1.17,1.46,10.53,2.05c0,0,5.78-1.17,9.47,5.26a16.13,16.13,0,0,0,7.33,6.14s-13.14,21.92-55.09,14.32c0,0-.16,16.37,4.38,16.37h27.77s-8.85-1.61-7.28-5.33a8,8,0,0,0,4.21-7.68S291.78,267,308.73,249.86Z" opacity="0.2"/><path d="M297.66,228.57s4,19,11.07,21.29c0,0,23.75-3.14,31.64-18.93,0,0-.21-4.08-7.25,1.8,1.45-1.31,10.27-9.39,7.25-11,0,0-1.75-2.83-8.53,4.37.47-.59,8.9-11.27,6.56-15.11,0,0-2.43-3-7.53,2.88,2.81-4.27,5.89-10,2.92-10.77,0,0-2.63-2.2-12.05,8.33,0,0-7.9,11.2-10.52,9.12,0,0,4.46-8.75,2.11-12.64a1.93,1.93,0,0,0-1.57-1h0a1.74,1.74,0,0,0-1.1.32c-1.59,1.09-4.27,4.43-7.76,14.24C302.89,221.51,301,229.48,297.66,228.57Z" fill="#f9b499"/><path d="M339.61,229.72s-6.69,10.31-11,8.34c0,0-1.86,0,4.28-5.15C332.92,232.91,337,229.05,339.61,229.72Z" fill="#f7a48b"/><path d="M339.61,221.63s-10.2,11-12.5,10.51,4.71-6,4.71-6S336.87,220.12,339.61,221.63Z" fill="#f7a48b"/><path d="M337.51,210.4s-9.52,14.06-13,13.52c0,0-1.8-.62,3.43-6C327.91,217.91,333.56,208.82,337.51,210.4Z" fill="#f7a48b"/><path d="M309.35,222.93c3.07,6.14,8.77-2.39,8.77-2.39,4.05-6.24,15.67-17.45,15.67-17.45s-2.63-2.2-12.05,8.33c0,0-7.9,11.2-10.52,9.12,0,0,4.46-8.75,2.11-12.64a1.93,1.93,0,0,0-1.57-1h0c.32,1.8-.63,4.76-1.43,6.8a17.57,17.57,0,0,0-1.24,7.13A8.93,8.93,0,0,0,309.35,222.93Z" fill="#f7a48b"/><path d="M341,273.41s-7.46-7.28-30.32,1.82l-13,5.32h39.43S340.92,282.22,341,273.41Z" opacity="0.2"/><polygon points="338.5 280.55 341 299.11 248.06 299.11 254.07 280.55 338.5 280.55" fill="#143d34"/><path d="M433.5,144.16s5.58-5.52-1.72-6.84L417,138.44s-14.46.1-14.6,21.45c0,0,5.9,8.13,19.41,13.09,0,0,4.63-7.06,7.35-8.35,0,0,4.66.86,6.34-3.43,0,0,3.54-4.15-.75-7,0,0,.86-4-1.29-5.72C433.5,148.46,435.22,146.88,433.5,144.16Z" fill="#f9b499"/><path d="M428.35,141.3s-4.92,4.38-10.14,4.58a.52.52,0,0,0-.52.58c.43,3.15,2,18.15-5.52,21.61,0,0,5.87,4.1,9.68,4.91,0,0,4.35-5.91,7.35-8.35,0,0-6,.72-5.86-2.72,0,0-3-.66-1.49-4.77,0,0-4.2-1.16-.42-6.27a.38.38,0,0,0-.22-.6c-.93-.16-2.33-.81-.52-3.39A13.31,13.31,0,0,0,428.35,141.3Z" fill="#f7a48b"/><path d="M429.2,145.45c-1.36.91-2.58,1.86-3.86,2.76-.63.46-1.28.88-1.92,1.33s-1.32.84-2,1.33a9.63,9.63,0,0,0,4.5-1.83,12.27,12.27,0,0,0,1.84-1.61A8.27,8.27,0,0,0,429.2,145.45Z" fill="#f7a48b"/><path d="M429.2,154.33c-1.27.51-2.45.94-3.67,1.38l-1.82.66a18.29,18.29,0,0,0-1.86.77,8.5,8.5,0,0,0,4-.47,8.79,8.79,0,0,0,1.84-.92A5,5,0,0,0,429.2,154.33Z" fill="#f7a48b"/><path d="M430.35,159.62a28.93,28.93,0,0,0-3.59.85c-.58.19-1.16.37-1.73.61a9.79,9.79,0,0,0-1.69.83,10.1,10.1,0,0,0,3.72-.46,12.45,12.45,0,0,0,1.74-.71A5.42,5.42,0,0,0,430.35,159.62Z" fill="#f7a48b"/><polygon points="436.91 45.9 424.08 137.91 420.69 138.16 433.11 45.9 436.91 45.9" fill="#143d34"/><rect x="112.3" y="110.72" width="71.03" height="49.98" rx="5.14" transform="translate(295.63 271.43) rotate(-180)" fill="#fff"/><polygon points="153.81 123.83 153.81 146.24 133.64 135.03 153.81 123.83" fill="#e6e7e8"/><rect x="112.3" y="173.93" width="71.03" height="49.98" rx="5.14" transform="translate(295.63 397.85) rotate(-180)" fill="#fff"/><polygon points="153.81 187.04 153.81 209.45 133.64 198.24 153.81 187.04" fill="#e6e7e8"/><rect x="112.3" y="235.32" width="71.03" height="49.98" rx="5.14" transform="translate(295.63 520.63) rotate(-180)" fill="#fff"/><polygon points="153.81 248.43 153.81 270.84 133.64 259.63 153.81 248.43" fill="#e6e7e8"/><ellipse cx="283.37" cy="98.41" rx="6.36" ry="8.22" transform="translate(-13.41 54.78) rotate(-10.79)" fill="#f9b499"/><polygon points="314.72 112.33 314.72 131.62 304.44 137.32 286.44 129.21 285.83 95.66 314.72 112.33" fill="#f9b499"/><path d="M314.72,119.27v12.35L308,135.33s-21-9.2-15.38-23C292.66,112.32,300.47,124.68,314.72,119.27Z" fill="#f7a48b"/><ellipse cx="308.04" cy="89.2" rx="22.69" ry="31.46" fill="#f9b499"/><path d="M278.78,92.17s3.57-4.37,8.25,0c0,0,2.15-9.44.84-14.7A11.45,11.45,0,0,0,293,68.15s8.56,7.79,16.34,3.07c0,0-4.39-3.4-2.19-6.68,0,0,5.37,11.84,14.24,8.88,0,0-2.18-1.76-1.19-4.16,0,0,5.39,7.54,8.83,8l1.16,5.19s3.81-.85,5.4-3.94c1.07-2.08,1.14-5.15-1.58-9.63,0,0,4.16-8.54-3.3-12.93,0,0-3.72-2.63-13.37-2,0,0-7-12.93-19.73-9.21,0,0-7.23.23-8.54,13,0,0-13.82-2.64-16.23,12.27a9.51,9.51,0,0,0-.26,1.94C272.47,75,273.09,81.71,278.78,92.17Z" fill="#143d34"/><path d="M278.78,92.17s3.57-4.37,8.25,0c0,0,2.15-9.44.84-14.7A11.45,11.45,0,0,0,293,68.15s8.56,7.79,16.34,3.07c0,0-4.39-3.4-2.19-6.68,0,0,5.37,11.84,14.24,8.88,0,0-2.18-1.76-1.19-4.16,0,0,5.39,7.54,8.83,8l1.16,5.19s3.81-.85,5.4-3.94a13.4,13.4,0,0,0-7.5-7.1s8.65-6.26,2.62-10.42c0,0-2.24-2.89-11.64.69,0,0-8-16.36-19.16-4,0,0-1-6.37,3.51-8.78,0,0-11.61-1.64-11,10.64,0,0-6.69-1.86-9.09,4,0,0,3.5.22,2,2.74,0,0-9.91-2.08-12.75,5.56C272.47,75,273.09,81.71,278.78,92.17Z" opacity="0.2"/><path d="M313.41,151.35l-9.32-9.42L293,153.11l-18.85-17.78,4.52-6.27a4.22,4.22,0,0,1,5.59-1.14l2.16,1.29,18,8.11L315,131.54a2.23,2.23,0,0,1,2.27.08c1.89,1.21,5.07,4.2,2.5,9.65Z" fill="#f24d00"/><path d="M313.41,151.35l-9.32-9.42L293,153.11l-18.85-17.78,4.52-6.27a4.22,4.22,0,0,1,5.59-1.14l2.16,1.29,18,8.11L315,131.54a2.23,2.23,0,0,1,2.27.08c1.89,1.21,5.07,4.2,2.5,9.65Z" opacity="0.2"/><path d="M173.91,496.89a1.78,1.78,0,0,1-.71-.15c-5.3-2.3-8.88-5.85-10.64-10.55-3.13-8.33.16-18.42,3.47-25.42a55.7,55.7,0,0,1,6.12-9.82c11.83-15.52,8.06-27,2.81-34a29.53,29.53,0,0,0-9.65-8.12c-31.77-17.12-25.15-51.38-25.08-51.73a1.79,1.79,0,0,1,3.5.72c-.27,1.3-6.13,32,23.28,47.87a32.91,32.91,0,0,1,10.79,9.11c6,7.91,10.37,21-2.81,38.29a51.25,51.25,0,0,0-5.73,9.18c-3,6.38-6,15.48-3.36,22.64,1.41,3.75,4.34,6.62,8.72,8.53a1.78,1.78,0,0,1-.71,3.42Z" fill="#fff"/><path d="M188.38,496.15a1.76,1.76,0,0,1-1.29-.55,1.78,1.78,0,0,1,.06-2.52c4.2-4,6.32-8.28,6.31-12.71,0-6.86-5.05-13.08-9.27-17.08a43.47,43.47,0,0,0-9.62-6.76c-21.75-11.6-21.88-28.38-20-37.36a34.47,34.47,0,0,1,5.6-12.55c17.24-25,.09-51.94-.09-52.21a1.8,1.8,0,0,1,.52-2.47,1.78,1.78,0,0,1,2.47.52c.19.29,18.66,29.14,0,56.18a31.2,31.2,0,0,0-5,11.26c-2,9.76-.5,23.5,18.21,33.48a47.3,47.3,0,0,1,10.39,7.32c4.73,4.48,10.38,11.54,10.39,19.67,0,5.44-2.49,10.59-7.42,15.29A1.76,1.76,0,0,1,188.38,496.15Z" fill="#fff"/></svg>