<svg id="a685048d-ea2c-456c-80cd-be2b0cc066e8" data-name="Layer 1" xmlns="http://www.w3.org/2000/svg" width="865.76" height="682.89" viewBox="0 0 865.76 682.89"><rect x="274.46" y="578.24" width="35.12" height="24.26" fill="#f9b499"/><path d="M265,656.65l27,1.21,3.24-17.1,8.27,17.1h48a10.8,10.8,0,0,0,6.13-19.68l-41.79-26V594.89l-45.74.73Z" fill="#143d34"/><rect x="66.02" y="511.08" width="35.12" height="24.26" transform="translate(505.18 202.3) rotate(61.8)" fill="#f9b499"/><path d="M12.41,530.77,24.09,555.1l16.59-5.23L29.53,565.24l22.69,42.32a10.8,10.8,0,0,0,20.24-3.9l3.17-49.12,15.23-8.17-22.26-40Z" fill="#143d34"/><path d="M227.94,272.61s36,6.81,66.29-1.05a2.59,2.59,0,0,1,3.24,2.17l26.95,246.34s23.17,83-15.45,71c0,0-19.31-8.69-32.83-1.93,0,0-23.17,10.14-22.68-32.34V392.15s-28.61,92.44-116.58,149.28c0,0-31.14,21.12-36.93,2.78a17.86,17.86,0,0,1-6-11.47,34,34,0,0,0-7.68-18,46,46,0,0,0-4.07-4.19,19,19,0,0,1-6-9.5c-1.22-5.11-.48-11.89,8.54-17.18,0,0,110.22-44.24,123.33-138.87.4-2.9.82-5.81,1.39-8.69C212,323.64,220.47,278.63,227.94,272.61Z" fill="#143d34"/><path d="M277,86.7s5.23,3.32,5.43,14.52c0,0,11.46,55.71-16.35,53l0,7.35c12.54-1.69,21,3.73,21,3.73,15.93-.68,23.79-7.51,23.79-7.51-15.48-2.45-18.73-14.21-18.62-24a47.34,47.34,0,0,1,4.23-18.41c15.94-36.41-7.33-50.73-7.33-50.73-24.62-39.59-56.48-27-56.48-27l-15.93,6.27c-53.59,22.69-19.43,81.58-19.43,81.58S226.66,145,206,162c0,0-26.43,11.22-4.71,12.67h14s7.24-11.58,24.14-12.07c0,0,6.45-11.05-.3-19.74a16.49,16.49,0,0,1-7.43-10.55s-19.19.36-14.84-17.74c0,0,1.07-2.17,5.41,1.09,0,0-10.12-33.67,54.67-29" fill="#143d34"/><path d="M850.12,571V272.61L628.06,415.42c-6.85-5.43-13.55-7.7-19.61-8.2a33.81,33.81,0,0,0-25.89,8.2L364.5,272.61V576.06c0,9.3,4.58,13.9,9.23,16.18a18.7,18.7,0,0,0,9.59,2.65h448a18.75,18.75,0,0,0,12.54-4.81C853.35,582.48,850.12,571,850.12,571Z" fill="#d1d3d4"/><path d="M364.5,272.61s4.33-17.32,14.95-24.08L586.89,88.14a36.36,36.36,0,0,1,22.26-7.6h0a36.39,36.39,0,0,1,22.55,7.82L832.26,246.6s17.86,12.43,17.86,26L628.06,415.42s-16.17-20.41-45.5,0Z" fill="#bcbec0"/><path d="M784,313.21V128.81H376.45V280.43l206.11,135s23.78-21.38,45.5,0Z" fill="#143d34"/><path d="M398.28,154.45H816.81V294L628.06,415.42s-20.75-16.76-45.5,0L398.28,294.73Z" fill="#e4e4e4"/><rect x="444.14" y="184.81" width="327.37" height="13.86" fill="#e1e1e1"/><rect x="444.14" y="215.6" width="241.37" height="11.69" fill="#e1e1e1"/><rect x="444.14" y="263.01" width="327.37" height="17.42" fill="#e1e1e1"/><rect x="444.14" y="294.87" width="241.37" height="15.45" fill="#e1e1e1"/><line x1="629.51" y1="420.38" x2="834.43" y2="557.63" fill="none" stroke="#bcbec0" stroke-miterlimit="10"/><line x1="574.96" y1="420.38" x2="376.45" y2="560.6" fill="none" stroke="#bcbec0" stroke-miterlimit="10"/><path d="M403.89,56.54c-14.56-1.45-22.93,4-25.12,11.65s.73,36.4.73,36.4l-6.66,26.24a260.47,260.47,0,0,1-17.72,29c-15.59,29.29-59.66,9.94-59.66,9.94-8.6-7.25-29.37-8.2-29.37-8.2l-.08-12-31.4-11.09a31.11,31.11,0,0,1,4.85,24.13c-26.25,1.07-34.29,29.46-36.46,40.78a174,174,0,0,1-6.18,23.77c-6.38,18.6-19,46.91-41.51,67.2l-19.39,4.92s-28.76-2.91-36.4-.73-13.1,10.56-11.65,25.12,24.39,8,24.39,8l20.7-6.87c2.14-.71,12.53-5.69,19.48-9.06,8.43-4,19.94-9.82,24.26-13.4,34.28-24.86,50.69-85.2,50.69-85.2L280,211.36,303.66,208c72.71,4.28,90.85-67.89,94-84.4,0,0,6.46-17.26,7.55-20.54l6.65-22.11S418.45,58,403.89,56.54Z" fill="#f9b499"/><path d="M280.21,163.49a117.19,117.19,0,0,1,12.58,19.34,96,96,0,0,1,10.67,52.61c-1.49,18.46-4.35,37.81-4.35,37.81-20.56,14.54-70.88,2.51-70.88,2.51-12.71-6-2.84-26.58-2.84-26.58L228.23,165l2.71-1-.57,25.2s23.07,1,42.89,15.14L289.54,190l-13.76-27.32Z" fill="#f24d00"/><path d="M239.75,151.24s-1-6.73-3.56-10.73c0,0,16,13.9,29.86,13.71C266.05,154.22,248.86,158.37,239.75,151.24Z" fill="#f4a48e"/><path d="M228.82,132.32c-16.42-2-15.43-11.56-15.43-11.56-.95-11.92,8.91-5.09,8.91-5.09-6.59-36.62,54.67-29,54.67-29,5.63,4.4,5.63,13.68,5.63,13.68s11.29,52.93-13.72,54a39.9,39.9,0,0,1-34.27-15.93Z" fill="#f9b499"/></svg>